<svg xmlns="http://www.w3.org/2000/svg" viewBox="0 0 178 20" width="178" height="20">
	<style>
		tspan { white-space:pre }
		.shp0 { fill: #f3f3f3 } 
	</style>
	<g id="LOGO + Menu">
		<path id="Logo" class="shp0" d="M15.81 13.5C13.75 13.5 12.05 13.7 10.73 14.1C9.41 14.51 8.42 14.87 7.79 15.2L12.49 6.26L16.34 13.5L15.81 13.5ZM10.46 2.45L0.99 19.99L5.12 19.99L5.23 19.76C5.38 19.56 5.8 19.3 6.47 18.99C7.15 18.67 7.97 18.37 8.95 18.08C9.93 17.79 11.02 17.55 12.22 17.35C13.41 17.15 14.62 17.05 15.84 17.05L18.21 17.05L19.78 19.99L24.09 19.99L13.4 0L9.16 0L10.46 2.45ZM42.76 12.06C44.21 11.63 45.33 10.95 46.12 10.02C46.91 9.09 47.3 7.86 47.3 6.35C47.3 5.5 47.15 4.71 46.85 3.99C46.54 3.27 46.11 2.65 45.55 2.12C44.99 1.59 44.33 1.18 43.58 0.89C42.83 0.6 42 0.46 41.08 0.46L28.33 0.46L28.33 19.99L32.34 19.99L32.34 13.12C32.75 12.92 33.12 12.75 33.46 12.62C33.81 12.48 34.18 12.36 34.57 12.26C34.97 12.16 35.42 12.09 35.95 12.05C36.47 12.01 37.11 11.99 37.87 11.99L38.14 11.99L41.2 16.89C41.65 17.62 42.11 18.2 42.57 18.61C43.03 19.02 43.5 19.33 43.98 19.53C44.47 19.74 44.96 19.86 45.45 19.91C45.95 19.96 46.45 19.99 46.96 19.99L48.68 19.99L48.68 15.84L47.3 15.84C47.08 15.84 46.81 15.82 46.52 15.78C46.23 15.74 45.93 15.67 45.62 15.56C45.32 15.44 45.03 15.27 44.75 15.05C44.47 14.82 44.21 14.5 43.98 14.1L42.76 12.06ZM37.87 8.11C36.81 8.11 35.81 8.19 34.88 8.35C33.95 8.52 33.1 8.81 32.34 9.24L32.34 4.34L40.39 4.34C40.72 4.34 41.07 4.36 41.43 4.4C41.78 4.43 42.09 4.52 42.36 4.64C42.63 4.77 42.85 4.96 43.03 5.21C43.21 5.46 43.3 5.8 43.3 6.22C43.3 6.85 43.07 7.32 42.63 7.64C42.18 7.95 41.67 8.11 41.08 8.11L37.87 8.11ZM65.48 12.45L68.23 16.89C68.81 17.6 69.35 18.16 69.83 18.57C70.31 18.99 70.78 19.29 71.22 19.5C71.67 19.7 72.11 19.83 72.56 19.89C73.01 19.95 73.48 19.99 73.99 19.99L75.71 19.99L75.71 15.84L74.34 15.84C73.83 15.84 73.29 15.75 72.73 15.57C72.17 15.4 71.6 14.91 71.01 14.1L68.11 9.26L74.64 0.46L69.6 0.46L60.48 12.97L60.48 0.46L56.31 0.46L56.31 19.99L60.48 19.99L65.48 12.45ZM86.86 12.97C87.29 12.75 87.69 12.56 88.04 12.41C88.4 12.26 88.79 12.14 89.23 12.07C89.66 11.99 90.17 11.94 90.77 11.9C91.37 11.86 92.13 11.84 93.04 11.84L95.95 11.84L95.95 7.96L93.04 7.96C91.9 7.96 90.8 8.02 89.74 8.15C88.68 8.27 87.72 8.59 86.86 9.09L86.86 4.34L98.54 4.34L98.54 0.46L82.96 0.46L82.96 19.99L99.27 19.99L99.27 16.07L86.86 16.07L86.86 12.97ZM104.61 0.46L106.56 3.36L106.56 19.99L110.49 19.99L110.49 7.28L121.49 19.99L125.42 19.99L125.42 0.46L121.49 0.46L121.49 14.03L109.54 0.46L104.61 0.46ZM138.48 12.97C138.91 12.75 139.3 12.56 139.66 12.41C140.02 12.26 140.41 12.14 140.84 12.07C141.28 11.99 141.79 11.94 142.39 11.9C142.99 11.86 143.75 11.84 144.66 11.84L147.56 11.84L147.56 7.96L144.66 7.96C143.52 7.96 142.42 8.02 141.36 8.15C140.3 8.27 139.34 8.59 138.48 9.09L138.48 4.34L150.16 4.34L150.16 0.46L134.58 0.46L134.58 19.99L150.89 19.99L150.89 16.07L138.48 16.07L138.48 12.97ZM169.71 13.5C167.65 13.5 165.95 13.7 164.63 14.1C163.31 14.51 162.33 14.87 161.69 15.2L166.39 6.26L170.24 13.5L169.71 13.5ZM164.36 2.45L154.89 19.99L159.02 19.99L159.13 19.76C159.29 19.56 159.7 19.3 160.37 18.99C161.05 18.67 161.87 18.37 162.85 18.08C163.83 17.79 164.92 17.55 166.12 17.35C167.32 17.15 168.52 17.05 169.75 17.05L172.11 17.05L173.68 19.99L177.99 19.99L167.3 0L163.06 0L164.36 2.45Z" />
	</g>
</svg>